<?xml version="1.0" standalone="no"?>
<!DOCTYPE svg PUBLIC "-//W3C//DTD SVG 20010904//EN"
 "http://www.w3.org/TR/2001/REC-SVG-20010904/DTD/svg10.dtd">
<svg version="1.0" xmlns="http://www.w3.org/2000/svg"
 width="1280.000000pt" height="1115.000000pt" viewBox="0 0 1280.000000 1115.000000"
 preserveAspectRatio="xMidYMid meet">
<g transform="translate(0.000000,1115.000000) scale(0.100000,-0.100000)"
fill="#000000" stroke="none">
<path d="M391 11129 c-190 -55 -299 -160 -361 -349 l-30 -92 0 -3476 0 -3477
24 -82 c40 -142 124 -253 237 -313 121 -64 -89 -60 2854 -60 1685 0 2696 -4
2705 -10 23 -14 20 -343 -4 -464 -37 -189 -126 -382 -221 -481 l-50 -53 -210
-6 c-656 -21 -1349 -82 -1768 -157 -242 -43 -441 -111 -467 -158 -5 -11 -10
-80 -10 -153 0 -134 0 -134 28 -160 35 -33 50 -41 147 -72 997 -326 5273 -326
6270 0 97 31 112 39 148 72 27 26 27 26 27 160 0 73 -5 142 -10 153 -26 47
-225 115 -467 158 -419 75 -1112 136 -1768 157 l-210 6 -50 53 c-95 99 -184
292 -221 481 -24 121 -27 450 -4 464 9 6 1020 10 2705 10 2943 0 2733 -4 2854
60 113 60 197 171 237 313 l24 82 0 3477 0 3476 -30 91 c-35 108 -66 159 -136
227 -62 59 -131 95 -237 124 l-77 20 -5932 -1 c-5747 -1 -5935 -2 -5997 -20z
m11600 -788 l29 -29 0 -2971 c0 -2281 -3 -2976 -12 -2996 -7 -15 -24 -33 -39
-41 -42 -21 -11096 -21 -11138 0 -15 8 -32 26 -39 41 -9 20 -12 715 -12 2996
l0 2971 29 29 29 29 5562 0 5562 0 29 -29z"/>
</g>
</svg>
